<?xml version="1.0" encoding="UTF-8"?>
<svg version="1.1" xmlns="http://www.w3.org/2000/svg" width="142" height="142">
<path d="M0 0 C0.81984375 0.38929687 1.6396875 0.77859375 2.484375 1.1796875 C17.15838154 9.07748083 27.37881291 21.34459756 32.25390625 37.18359375 C33.93271597 43.52088071 34.80110673 50.45536536 34 57 C33.01 57.99 33.01 57.99 32 59 C31.67 54.71 31.34 50.42 31 46 C30.34 50.95 29.68 55.9 29 61 C27.68 61.33 26.36 61.66 25 62 C25.04640625 60.97261719 25.0928125 59.94523437 25.140625 58.88671875 C25.6103754 44.07344467 21.65485746 31.90280265 11.375 20.8125 C0.78182961 10.8448311 -11.57554306 6.45805833 -25.94506836 6.58007812 C-37.08448916 6.99220895 -47.43192285 10.80869656 -56 18 C-66.05811864 28.90059353 -70.42598072 41.6910467 -70.2734375 56.3046875 C-69.3916568 68.22132388 -63.39491882 79.07397299 -54.875 87.3125 C-46.13711641 94.53720171 -36.1495433 97.8348225 -25 99 C-25 99.66 -25 100.32 -25 101 C-23.68 101 -22.36 101 -21 101 C-21.33 99.35 -21.66 97.7 -22 96 C-21.01 96 -20.02 96 -19 96 C-18.505 94.515 -18.505 94.515 -18 93 C-17.01 93.495 -17.01 93.495 -16 94 C-16 94.66 -16 95.32 -16 96 C-15.34 96 -14.68 96 -14 96 C-13.896875 95.0925 -13.79375 94.185 -13.6875 93.25 C-12.98314578 89.92032549 -12.48147636 88.30422804 -10 86 C-7.3125 85.75 -7.3125 85.75 -5 86 C-4.79375 85.319375 -4.5875 84.63875 -4.375 83.9375 C-1.81005625 78.45784745 2.32635879 73.38890156 8 71 C8.63421875 71.20238281 9.2684375 71.40476562 9.921875 71.61328125 C12.05123143 72.25461278 12.05123143 72.25461278 13.7890625 70.85546875 C14.39492187 70.30503906 15.00078125 69.75460938 15.625 69.1875 C24.16062537 62.44967118 35.62740374 63.52092198 46 64 C47.67516252 64.28760982 49.34792887 64.60056307 51 65 C51 65.66 51 66.32 51 67 C50.443125 67.495 49.88625 67.99 49.3125 68.5 C46.50469167 71.53546847 45.06857655 74.69915604 43.28515625 78.40234375 C38.25807187 88.56347176 31.11082807 96.86521157 20.28125 101.05078125 C17.84008642 101.77483722 17.84008642 101.77483722 17 104 C14.71484375 104.4140625 14.71484375 104.4140625 11.9375 104.625 C10.55884766 104.73714844 10.55884766 104.73714844 9.15234375 104.8515625 C8.08693359 104.92503906 8.08693359 104.92503906 7 105 C7 105.66 7 106.32 7 107 C5.87980469 106.98839844 4.75960937 106.97679688 3.60546875 106.96484375 C2.13281417 106.95546378 0.66015778 106.9463638 -0.8125 106.9375 C-1.91948242 106.92493164 -1.91948242 106.92493164 -3.04882812 106.91210938 C-6.29922068 106.89740172 -8.89404895 106.96468298 -12 108 C-13.66621616 108.03874921 -15.33394172 108.0450286 -17 108 C-17.33 106.68 -17.66 105.36 -18 104 C-18.99 104.33 -19.98 104.66 -21 105 C-20.34 106.32 -19.68 107.64 -19 109 C-34.46625282 109.83685136 -47.43509039 105.83633309 -59.25 95.75 C-68.28650353 87.18683713 -75.29566949 76.33765104 -76.16113281 63.63500977 C-76.51925691 42.795102 -74.91669084 25.24318424 -59.6953125 9.4765625 C-44.09623959 -4.8564987 -19.39193548 -9.45802988 0 0 Z M-53 7 C-53.77859375 7.58652344 -54.5571875 8.17304688 -55.359375 8.77734375 C-61.88573659 14.13202633 -68.40240544 21.4528691 -70 30 C-67.31649337 27.52291696 -65.37940054 24.75182715 -63.3125 21.75 C-54.57274723 9.71103022 -43.47254199 3.26202932 -28.82421875 0.45703125 C-21.88739382 -0.37198664 -14.97168593 -0.22788804 -8 0 C-21.63657053 -7.29260076 -41.28204159 -1.82944069 -53 7 Z M-1 5 C2.20930003 7.6744167 5.53875346 10.04511614 9 12.375 C13.10867663 15.21427952 16.05930311 17.98104758 19 22 C19 17.69359396 16.88548755 16.09831931 14.0703125 13.00390625 C9.80341593 8.8738724 5.04331825 5.56656109 -1 5 Z M20 22 C20.33 22.99 20.66 23.98 21 25 C21 24.01 21 23.02 21 22 C20.67 22 20.34 22 20 22 Z M22 25 C23 27 23 27 23 27 Z M23 27 C24 29 24 29 24 29 Z M24 29 C25 31 25 31 25 31 Z M28 33 C29 35 29 35 29 35 Z M29 36 C30 40 30 40 30 40 Z M-74 64 C-73 66 -73 66 -73 66 Z M44 66 C42.32419948 66.97207035 42.32419948 66.97207035 40.8125 68.4375 C39.884375 69.283125 38.95625 70.12875 38 71 C38.99 71.495 38.99 71.495 40 72 C42.31 70.35 44.62 68.7 47 67 C46.01 66.67 45.02 66.34 44 66 Z M-73 67 C-71.12852994 79.47646704 -64.22415485 89.85371017 -54.16015625 97.375 C-52.80276206 98.29483418 -51.40603058 99.15638165 -50 100 C-49.01 99.505 -49.01 99.505 -48 99 C-48.6290625 98.53851563 -49.258125 98.07703125 -49.90625 97.6015625 C-61.16006099 89.02561617 -67.04735744 80.01944674 -72 67 C-72.33 67 -72.66 67 -73 67 Z M26 76 C24.13799503 78.26893321 22.58221902 80.5211902 21 83 C28.51649998 79.48792359 33.34679927 73.71560839 38 67 C33.4238796 67 29.09193052 72.93233896 26 76 Z M22 69 C21.67 69.66 21.34 70.32 21 71 C21.99 70.67 22.98 70.34 24 70 C23.34 69.67 22.68 69.34 22 69 Z M16.3515625 72.3984375 C11.9641263 77.42115858 8.26012617 82.66693814 6 89 C6.33 89.66 6.66 90.32 7 91 C7.59167969 90.05898437 8.18335937 89.11796875 8.79296875 88.1484375 C9.59092412 86.89048433 10.38911376 85.63267975 11.1875 84.375 C11.57486328 83.75753906 11.96222656 83.14007813 12.36132812 82.50390625 C14.97805127 78.39500213 17.81007164 74.68286578 21 71 C18.02099722 70.67654311 18.02099722 70.67654311 16.3515625 72.3984375 Z M18 78 C19 80 19 80 19 80 Z M0 80 C-0.680625 81.0725 -1.36125 82.145 -2.0625 83.25 C-2.44535156 83.85328125 -2.82820313 84.4565625 -3.22265625 85.078125 C-4.1842383 87.45550373 -3.83583327 88.62392051 -3 91 C-2.30300448 89.54618103 -1.61766134 88.08677047 -0.9375 86.625 C-0.55464844 85.81289062 -0.17179687 85.00078125 0.22265625 84.1640625 C0.60744141 83.09285156 0.60744141 83.09285156 1 82 C0.67 81.34 0.34 80.68 0 80 Z M3 81 C2.16013916 82.93467942 1.32831973 84.87285129 0.5 86.8125 C0.0359375 87.89144531 -0.428125 88.97039062 -0.90625 90.08203125 C-2.17549303 92.94882024 -2.17549303 92.94882024 -2 96 C1.33524284 93.30004151 2.56351308 89.96744005 4 86 C4.25390222 83.20659843 4.25390222 83.20659843 4 81 C3.67 81 3.34 81 3 81 Z M17.1875 88.5 C15.44533203 89.19609375 15.44533203 89.19609375 13.66796875 89.90625 C12.34732422 90.44765625 12.34732422 90.44765625 11 91 C11 91.33 11 91.66 11 92 C17.81987029 91.56699236 22.91643021 90.09212176 29 87 C29 86.67 29 86.34 29 86 C24.52706553 85.66305578 21.31502477 86.83231323 17.1875 88.5 Z M4 88 C5 90 5 90 5 90 Z M-7 89 C-7.33 91.31 -7.66 93.62 -8 96 C-6.68 94.68 -5.36 93.36 -4 92 C-4.66 91.67 -5.32 91.34 -6 91 C-6.33 90.34 -6.66 89.68 -7 89 Z M-10 90 C-9 93 -9 93 -9 93 Z M-11 94 C-11 95.65 -11 97.3 -11 99 C-10.67 99 -10.34 99 -10 99 C-10 97.35 -10 95.7 -10 94 C-10.33 94 -10.66 94 -11 94 Z M15.875 94 C15.15054688 94.185625 14.42609375 94.37125 13.6796875 94.5625 C13.12539062 94.706875 12.57109375 94.85125 12 95 C12 95.33 12 95.66 12 96 C13.4800841 95.88637738 14.95910074 95.75877092 16.4375 95.625 C17.26121094 95.55539063 18.08492188 95.48578125 18.93359375 95.4140625 C19.61550781 95.27742188 20.29742187 95.14078125 21 95 C21.33 94.34 21.66 93.68 22 93 C19.78970467 93 18.01332407 93.44817443 15.875 94 Z M-13 95 C-12 99 -12 99 -12 99 Z M9 97 C13 98 13 98 13 98 Z M-3 98 C-3.33 98.66 -3.66 99.32 -4 100 C2.91159038 101.72928837 2.91159038 101.72928837 10 102 C8.24135754 99.8206856 7.30604 99.06313581 4.51953125 98.48828125 C3.17955078 98.40126953 3.17955078 98.40126953 1.8125 98.3125 C0.91144531 98.24675781 0.01039062 98.18101563 -0.91796875 98.11328125 C-1.60503906 98.07589844 -2.29210937 98.03851563 -3 98 Z M-48 100 C-47.67 100.66 -47.34 101.32 -47 102 C-46.01 101.67 -45.02 101.34 -44 101 C-45.32 100.67 -46.64 100.34 -48 100 Z M-31 106 C-27 107 -27 107 -27 107 Z " fill="#D4EBF3" transform="translate(88,16)"/>
<path d="M0 0 C0 0.66 0 1.32 0 2 C-0.556875 2.495 -1.11375 2.99 -1.6875 3.5 C-4.49530833 6.53546847 -5.93142345 9.69915604 -7.71484375 13.40234375 C-12.74192813 23.56347176 -19.88917193 31.86521157 -30.71875 36.05078125 C-33.15991358 36.77483722 -33.15991358 36.77483722 -34 39 C-36.28515625 39.4140625 -36.28515625 39.4140625 -39.0625 39.625 C-39.98160156 39.69976562 -40.90070313 39.77453125 -41.84765625 39.8515625 C-42.55792969 39.90054688 -43.26820312 39.94953125 -44 40 C-44 40.66 -44 41.32 -44 42 C-45.12019531 41.98839844 -46.24039063 41.97679687 -47.39453125 41.96484375 C-48.86718583 41.95546378 -50.33984222 41.9463638 -51.8125 41.9375 C-52.91948242 41.92493164 -52.91948242 41.92493164 -54.04882812 41.91210938 C-57.29922068 41.89740172 -59.89404895 41.96468298 -63 43 C-64.66621616 43.03874921 -66.33394172 43.0450286 -68 43 C-68.495 41.02 -68.495 41.02 -69 39 C-69.87140625 39.04640625 -70.7428125 39.0928125 -71.640625 39.140625 C-89.419249 39.67937118 -100.37833321 32.75635157 -113 21 C-112.67 20.34 -112.34 19.68 -112 19 C-111.50113281 19.50789063 -111.00226563 20.01578125 -110.48828125 20.5390625 C-99.62122378 30.95739049 -86.73617662 34.9873875 -72 36 C-72.33 34.35 -72.66 32.7 -73 31 C-72.01 31 -71.02 31 -70 31 C-69.505 29.515 -69.505 29.515 -69 28 C-68.34 28.33 -67.68 28.66 -67 29 C-67 29.66 -67 30.32 -67 31 C-66.34 31 -65.68 31 -65 31 C-64.896875 30.0925 -64.79375 29.185 -64.6875 28.25 C-63.98314578 24.92032549 -63.48147636 23.30422804 -61 21 C-58.3125 20.75 -58.3125 20.75 -56 21 C-55.79375 20.319375 -55.5875 19.63875 -55.375 18.9375 C-52.81005625 13.45784745 -48.67364121 8.38890156 -43 6 C-42.36578125 6.20238281 -41.7315625 6.40476562 -41.078125 6.61328125 C-38.94876857 7.25461278 -38.94876857 7.25461278 -37.2109375 5.85546875 C-36.60507813 5.30503906 -35.99921875 4.75460938 -35.375 4.1875 C-26.38998759 -2.90506474 -10.79635148 -2.61033643 0 0 Z M-7 1 C-8.67580052 1.97207035 -8.67580052 1.97207035 -10.1875 3.4375 C-11.115625 4.283125 -12.04375 5.12875 -13 6 C-12.01 6.495 -12.01 6.495 -11 7 C-8.69 5.35 -6.38 3.7 -4 2 C-4.99 1.67 -5.98 1.34 -7 1 Z M-25 11 C-26.86200497 13.26893321 -28.41778098 15.5211902 -30 18 C-22.48350002 14.48792359 -17.65320073 8.71560839 -13 2 C-17.5761204 2 -21.90806948 7.93233896 -25 11 Z M-29 4 C-29.33 4.66 -29.66 5.32 -30 6 C-29.01 5.67 -28.02 5.34 -27 5 C-27.66 4.67 -28.32 4.34 -29 4 Z M-34.6484375 7.3984375 C-39.0358737 12.42115858 -42.73987383 17.66693814 -45 24 C-44.67 24.66 -44.34 25.32 -44 26 C-43.40832031 25.05898437 -42.81664063 24.11796875 -42.20703125 23.1484375 C-41.40907588 21.89048433 -40.61088624 20.63267975 -39.8125 19.375 C-39.42513672 18.75753906 -39.03777344 18.14007813 -38.63867188 17.50390625 C-36.02194873 13.39500213 -33.18992836 9.68286578 -30 6 C-32.97900278 5.67654311 -32.97900278 5.67654311 -34.6484375 7.3984375 Z M-33 13 C-32 15 -32 15 -32 15 Z M-51 15 C-51.680625 16.0725 -52.36125 17.145 -53.0625 18.25 C-53.44535156 18.85328125 -53.82820313 19.4565625 -54.22265625 20.078125 C-55.1842383 22.45550373 -54.83583327 23.62392051 -54 26 C-53.30300448 24.54618103 -52.61766134 23.08677047 -51.9375 21.625 C-51.55464844 20.81289062 -51.17179687 20.00078125 -50.77734375 19.1640625 C-50.39255859 18.09285156 -50.39255859 18.09285156 -50 17 C-50.33 16.34 -50.66 15.68 -51 15 Z M-48 16 C-48.83986084 17.93467942 -49.67168027 19.87285129 -50.5 21.8125 C-50.9640625 22.89144531 -51.428125 23.97039062 -51.90625 25.08203125 C-53.17549303 27.94882024 -53.17549303 27.94882024 -53 31 C-49.66475716 28.30004151 -48.43648692 24.96744005 -47 21 C-46.74609778 18.20659843 -46.74609778 18.20659843 -47 16 C-47.33 16 -47.66 16 -48 16 Z M-33.8125 23.5 C-35.55466797 24.19609375 -35.55466797 24.19609375 -37.33203125 24.90625 C-38.65267578 25.44765625 -38.65267578 25.44765625 -40 26 C-40 26.33 -40 26.66 -40 27 C-33.18012971 26.56699236 -28.08356979 25.09212176 -22 22 C-22 21.67 -22 21.34 -22 21 C-26.47293447 20.66305578 -29.68497523 21.83231323 -33.8125 23.5 Z M-47 23 C-46 25 -46 25 -46 25 Z M-58 24 C-58.33 26.31 -58.66 28.62 -59 31 C-57.68 29.68 -56.36 28.36 -55 27 C-55.66 26.67 -56.32 26.34 -57 26 C-57.33 25.34 -57.66 24.68 -58 24 Z M-61 25 C-60 28 -60 28 -60 28 Z M-62 29 C-62 30.65 -62 32.3 -62 34 C-61.67 34 -61.34 34 -61 34 C-61 32.35 -61 30.7 -61 29 C-61.33 29 -61.66 29 -62 29 Z M-35.125 29 C-35.84945312 29.185625 -36.57390625 29.37125 -37.3203125 29.5625 C-37.87460938 29.706875 -38.42890625 29.85125 -39 30 C-39 30.33 -39 30.66 -39 31 C-37.5199159 30.88637738 -36.04089926 30.75877092 -34.5625 30.625 C-33.73878906 30.55539063 -32.91507812 30.48578125 -32.06640625 30.4140625 C-31.38449219 30.27742188 -30.70257813 30.14078125 -30 30 C-29.67 29.34 -29.34 28.68 -29 28 C-31.21029533 28 -32.98667593 28.44817443 -35.125 29 Z M-64 30 C-63 34 -63 34 -63 34 Z M-42 32 C-38 33 -38 33 -38 33 Z M-54 33 C-54.33 33.66 -54.66 34.32 -55 35 C-48.08840962 36.72928837 -48.08840962 36.72928837 -41 37 C-42.75864246 34.8206856 -43.69396 34.06313581 -46.48046875 33.48828125 C-47.82044922 33.40126953 -47.82044922 33.40126953 -49.1875 33.3125 C-50.08855469 33.24675781 -50.98960938 33.18101563 -51.91796875 33.11328125 C-52.60503906 33.07589844 -53.29210937 33.03851563 -54 33 Z " fill="#024894" transform="translate(139,81)"/>
<path d="M0 0 C11.11205238 7.08648416 17.9874691 17.54909939 22 30 C22.79581248 33.84476902 23.11548975 37.45375835 23.0625 41.375 C23.05347656 42.24898437 23.04445313 43.12296875 23.03515625 44.0234375 C23.02355469 44.67570312 23.01195313 45.32796875 23 46 C22.67 46 22.34 46 22 46 C21.67 48.31 21.34 50.62 21 53 C20.34 53 19.68 53 19 53 C19.04640625 51.97261719 19.0928125 50.94523437 19.140625 49.88671875 C19.6103754 35.07344467 15.65485746 22.90280265 5.375 11.8125 C-5.21817039 1.8448311 -17.57554306 -2.54194167 -31.94506836 -2.41992188 C-43.08448916 -2.00779105 -53.43192285 1.80869656 -62 9 C-72.49162327 20.37040881 -75.73138791 33.07960703 -77 48 C-77.33 48 -77.66 48 -78 48 C-78.56167987 38.46704441 -77.11665399 30.97107462 -74 22 C-73.5978125 20.14375 -73.5978125 20.14375 -73.1875 18.25 C-69.0011601 6.79264868 -58.53620685 -0.58964362 -48.02734375 -5.73828125 C-32.70420088 -12.12457176 -13.96282679 -8.41910149 0 0 Z " fill="#BED8E8" transform="translate(94,25)"/>
<path d="M0 0 C7.49972213 7.16128702 14.3178697 17.30780732 15.46484375 27.82421875 C15.4765625 30.31640625 15.4765625 30.31640625 15.1640625 34.06640625 C14.8340625 34.06640625 14.5040625 34.06640625 14.1640625 34.06640625 C13.95652344 33.2671875 13.74898438 32.46796875 13.53515625 31.64453125 C9.55830909 17.46765352 2.99294204 6.01028444 -9.4609375 -2.18359375 C-21.13168072 -8.70495561 -34.31550314 -10.96406724 -47.42578125 -8.16796875 C-53.42570254 -6.43603271 -58.50641704 -4.13130602 -63.8359375 -0.93359375 C-64.4959375 -1.26359375 -65.1559375 -1.59359375 -65.8359375 -1.93359375 C-45.23903359 -17.19055961 -19.87309 -16.25660896 0 0 Z " fill="#054995" transform="translate(100.8359375,29.93359375)"/>
<path d="M0 0 C1.65 0 3.3 0 5 0 C6.65 3.63 8.3 7.26 10 11 C9.855625 9.741875 9.71125 8.48375 9.5625 7.1875 C9.48128906 6.47980469 9.40007813 5.77210937 9.31640625 5.04296875 C9.02829265 2.80603607 9.02829265 2.80603607 8 0 C9.65 0 11.3 0 13 0 C14.32 3.3 15.64 6.6 17 10 C17.99 6.7 18.98 3.4 20 0 C20.99 0 21.98 0 23 0 C21.17778624 6.61242722 18.94776396 12.80520671 16 19 C14.5 17.6875 14.5 17.6875 13 16 C13 15.01 13 14.02 13 13 C12.34 13 11.68 13 11 13 C10.67 14.65 10.34 16.3 10 18 C8.68 18 7.36 18 6 18 C4.99600476 15.37646482 3.99665555 12.75132205 3 10.125 C2.57074219 9.00544922 2.57074219 9.00544922 2.1328125 7.86328125 C0 2.2265625 0 2.2265625 0 0 Z " fill="#101010" transform="translate(44,67)"/>
<path d="M0 0 C3.5625 0.25 3.5625 0.25 6.5625 2.25 C6.5625 3.57 6.5625 4.89 6.5625 6.25 C4.5825 7.24 4.5825 7.24 2.5625 8.25 C3.366875 8.45625 4.17125 8.6625 5 8.875 C7.5625 10.25 7.5625 10.25 8.5 13.25 C8.520625 14.24 8.54125 15.23 8.5625 16.25 C6.5625 18.25 6.5625 18.25 4.6171875 18.4453125 C2.59895833 18.38020833 0.58072917 18.31510417 -1.4375 18.25 C-1.4375 19.57 -1.4375 20.89 -1.4375 22.25 C-2.7575 22.25 -4.0775 22.25 -5.4375 22.25 C-5.49540353 18.95840684 -5.53106261 15.66694397 -5.5625 12.375 C-5.57925781 11.43785156 -5.59601563 10.50070313 -5.61328125 9.53515625 C-5.62294922 8.19130859 -5.62294922 8.19130859 -5.6328125 6.8203125 C-5.64328613 5.99289551 -5.65375977 5.16547852 -5.66455078 4.31298828 C-5.24064928 0.46141016 -3.63732828 0.26453297 0 0 Z M0.5625 1.25 C-1.78869399 4.77679099 -1.65193452 6.27879485 -1.5625 10.4375 C-1.54445313 11.52417969 -1.52640625 12.61085938 -1.5078125 13.73046875 C-1.48460938 14.56191406 -1.46140625 15.39335938 -1.4375 16.25 C0.50853274 16.84070014 0.50853274 16.84070014 2.5625 17.25 C3.85883621 16.18354885 3.85883621 16.18354885 3.625 13.6875 C3.604375 12.883125 3.58375 12.07875 3.5625 11.25 C2.5725 10.92 1.5825 10.59 0.5625 10.25 C0.913125 9.5075 1.26375 8.765 1.625 8 C2.60759293 5.1177274 2.5951802 4.03823655 1.5625 1.25 C1.2325 1.25 0.9025 1.25 0.5625 1.25 Z " fill="#101010" transform="translate(93.4375,66.75)"/>
<path d="M0 0 C0 6.27 0 12.54 0 19 C-1.65 19 -3.3 19 -5 19 C-6.2684375 19.3403125 -6.2684375 19.3403125 -7.5625 19.6875 C-10 20 -10 20 -12.3125 19.125 C-14.67423344 16.1509653 -14.39673839 13.76136809 -14.3359375 10.05859375 C-14 8 -14 8 -12 6 C-8.375 5.875 -8.375 5.875 -5 6 C-5 4.35 -5 2.7 -5 1 C-1.125 0 -1.125 0 0 0 Z M-8 7 C-8.66 8.32 -9.32 9.64 -10 11 C-7.03 12.98 -7.03 12.98 -4 15 C-4.26656572 12.06556598 -4.26656572 12.06556598 -5 9 C-5.99 8.34 -6.98 7.68 -8 7 Z M-10 14 C-9.34 15.32 -8.68 16.64 -8 18 C-7.34 17.34 -6.68 16.68 -6 16 C-7.32 15.34 -8.64 14.68 -10 14 Z " fill="#101010" transform="translate(76,43)"/>
<path d="M0 0 C0 0.66 0 1.32 0 2 C-0.72703125 2.14695312 -1.4540625 2.29390625 -2.203125 2.4453125 C-17.82402373 5.92997452 -26.15764656 11.78771969 -34.78759766 25.04052734 C-41.11575434 35.26803149 -43.17382215 45.17261179 -44 57 C-44.33 57 -44.66 57 -45 57 C-45.56167987 47.46704441 -44.11665399 39.97107462 -41 31 C-40.5978125 29.14375 -40.5978125 29.14375 -40.1875 27.25 C-35.99646521 15.77979952 -25.44764718 8.23448387 -14.8359375 3.22265625 C-9.8755087 1.08406918 -5.48617672 -0.33249556 0 0 Z " fill="#90B2D3" transform="translate(61,16)"/>
<path d="M0 0 C1.65 0 3.3 0 5 0 C6.66015625 1.828125 6.66015625 1.828125 8.0625 4.25 C10.19250521 7.86097837 11.9059855 9.9059855 15 13 C14.34 8.71 13.68 4.42 13 0 C13.99 0 14.98 0 16 0 C16 5.94 16 11.88 16 18 C15.01 18.33 14.02 18.66 13 19 C8.38265667 16.15855795 6.42931419 12.67867917 4 8 C4 11.3 4 14.6 4 18 C3.01 18 2.02 18 1 18 C0.67 12.06 0.34 6.12 0 0 Z " fill="#101010" transform="translate(30,44)"/>
<path d="M0 0 C1.43655854 -0.08131463 2.8744483 -0.13933559 4.3125 -0.1875 C5.51326172 -0.23970703 5.51326172 -0.23970703 6.73828125 -0.29296875 C9 0 9 0 10.71875 1.1875 C12.34757277 3.49168831 12.71927416 5.41416233 13.1875 8.1875 C13.34605469 9.08855469 13.50460938 9.98960938 13.66796875 10.91796875 C13.77753906 11.60503906 13.88710938 12.29210938 14 13 C12.06403108 13.22211116 10.12610672 13.42722992 8.1875 13.625 C6.56908203 13.79902344 6.56908203 13.79902344 4.91796875 13.9765625 C2 14 2 14 -1 12 C-1.375 9 -1.375 9 -1 6 C-0.01 5.34 0.98 4.68 2 4 C1.34 2.68 0.68 1.36 0 0 Z M3 1 C3.33 1.66 3.66 2.32 4 3 C4.99 2.67 5.98 2.34 7 2 C5.68 1.67 4.36 1.34 3 1 Z M3 7 C3.33 8.65 3.66 10.3 4 12 C5.32 11.34 6.64 10.68 8 10 C7.67 8.35 7.34 6.7 7 5 C5.53774984 4.90754997 5.53774984 4.90754997 3 7 Z " fill="#101010" transform="translate(48,49)"/>
<path d="M0 0 C1.43655854 -0.08131463 2.8744483 -0.13933559 4.3125 -0.1875 C5.51326172 -0.23970703 5.51326172 -0.23970703 6.73828125 -0.29296875 C9 0 9 0 10.75 1.1875 C12.38344378 3.55599348 12.50209901 5.3323248 12.6875 8.1875 C12.78611328 9.53908203 12.78611328 9.53908203 12.88671875 10.91796875 C12.92410156 11.60503906 12.96148437 12.29210938 13 13 C11.23086176 13.22226864 9.45955629 13.42733873 7.6875 13.625 C6.20830078 13.79902344 6.20830078 13.79902344 4.69921875 13.9765625 C2 14 2 14 -1 12 C-1.375 9 -1.375 9 -1 6 C-0.01 5.34 0.98 4.68 2 4 C1.34 2.68 0.68 1.36 0 0 Z M3 1 C3.33 1.66 3.66 2.32 4 3 C4.99 2.67 5.98 2.34 7 2 C5.68 1.67 4.36 1.34 3 1 Z M3 7 C3.33 8.65 3.66 10.3 4 12 C5.32 11.34 6.64 10.68 8 10 C7.67 8.35 7.34 6.7 7 5 C5.53774984 4.90754997 5.53774984 4.90754997 3 7 Z " fill="#101010" transform="translate(85,49)"/>
<path d="M0 0 C0.66 0.33 1.32 0.66 2 1 C2.05395478 2.62463842 2.09277195 4.24978541 2.125 5.875 C2.14820312 6.77992187 2.17140625 7.68484375 2.1953125 8.6171875 C2 11 2 11 0 13 C-6.96019496 13.55239643 -6.96019496 13.55239643 -10 11.9375 C-11.56646819 8.90246787 -11.2989878 6.34866332 -11 3 C-7.81299614 -1.78050578 -5.20928013 -1.10835747 0 0 Z M-6 1 C-6.33 2.98 -6.66 4.96 -7 7 C-5.35 6.34 -3.7 5.68 -2 5 C-2.33 3.68 -2.66 2.36 -3 1 C-3.99 1 -4.98 1 -6 1 Z M-4.75 8.5 C-5.1625 8.995 -5.575 9.49 -6 10 C-4.02 10.99 -4.02 10.99 -2 12 C-1.01 11.34 -0.02 10.68 1 10 C1 9.01 1 8.02 1 7 C-2.87797662 6.56613908 -2.87797662 6.56613908 -4.75 8.5 Z " fill="#101010" transform="translate(78,72)"/>
<path d="M0 0 C1.98 0 3.96 0 6 0 C6.054138 2.24973447 6.09285491 4.49984383 6.125 6.75 C6.14820312 8.00296875 6.17140625 9.2559375 6.1953125 10.546875 C6.01518005 13.73161677 5.88821788 15.46581285 4 18 C0.875 18.75 0.875 18.75 -2 19 C-1.67 17.68 -1.34 16.36 -1 15 C-0.01 15 0.98 15 2 15 C1.67 14.67 1.34 14.34 1 14 C0.76472227 11.65012738 0.58613583 9.29443961 0.4375 6.9375 C0.35371094 5.64714844 0.26992187 4.35679688 0.18359375 3.02734375 C0.12300781 2.02832031 0.06242187 1.02929688 0 0 Z " fill="#101010" transform="translate(77,49)"/>
<path d="M0 0 C0 4.62 0 9.24 0 14 C-1.32 14 -2.64 14 -4 14 C-4.33 9.71 -4.66 5.42 -5 1 C-1 0 -1 0 0 0 Z " fill="#101010" transform="translate(86,71)"/>
<path d="M0 0 C-3.65554332 2.24332788 -7.36951339 4.29594971 -11.1875 6.25 C-12.23292969 6.79140625 -13.27835938 7.3328125 -14.35546875 7.890625 C-15.22816406 8.25671875 -16.10085937 8.6228125 -17 9 C-17.66 8.67 -18.32 8.34 -19 8 C-5.13815789 -1.7127193 -5.13815789 -1.7127193 0 0 Z " fill="#2960A4" transform="translate(54,20)"/>
<path d="M0 0 C0.50789063 0.38671875 1.01578125 0.7734375 1.5390625 1.171875 C5.61331983 4.25427193 9.71647931 7.21571155 14 10 C13.67 10.99 13.34 11.98 13 13 C11.39400651 11.73147606 9.79027425 10.460089 8.1875 9.1875 C7.29417969 8.47980469 6.40085937 7.77210937 5.48046875 7.04296875 C1.57552343 3.82676969 1.57552343 3.82676969 0 2 C0 1.34 0 0.68 0 0 Z " fill="#3669A9" transform="translate(26,100)"/>
<path d="M0 0 C1.98 0.495 1.98 0.495 4 1 C3.67 2.32 3.34 3.64 3 5 C1.68 4.67 0.36 4.34 -1 4 C-0.67 2.68 -0.34 1.36 0 0 Z " fill="#101010" transform="translate(79,43)"/>
<path d="M0 0 C2.475 0.495 2.475 0.495 5 1 C4.34 2.32 3.68 3.64 3 5 C2.01 4.67 1.02 4.34 0 4 C0 2.68 0 1.36 0 0 Z " fill="#101010" transform="translate(82,66)"/>
</svg>
